<?xml version="1.0" encoding="iso-8859-1"?>
<!-- Uploaded to: SVG Repo, www.svgrepo.com, Generator: SVG Repo Mixer Tools -->
<svg fill="#000000" height="800px" width="800px" version="1.1" id="Layer_1" xmlns="http://www.w3.org/2000/svg" xmlns:xlink="http://www.w3.org/1999/xlink" 
	 viewBox="0 0 512.002 512.002" xml:space="preserve">
<g>
	<g>
		<path d="M415.358,93.117c-2.465-2.864-5.103-4.755-7.862-5.849l-76.097-72.296c-0.833-0.79-1.796-1.362-2.812-1.762
			c-0.043-0.017-0.069-0.052-0.113-0.069c-46.748-17.521-98.208-17.521-144.948,0c-0.043,0.017-0.078,0.052-0.121,0.069
			c-1.007,0.399-1.97,0.972-2.803,1.762l-76.106,72.296c-2.76,1.093-5.398,2.985-7.854,5.849
			c-27.284,31.735-59.8,220.741-45.412,376.294c0.295,3.228,2.369,5.866,5.172,7.099v18.137c0,9.572,7.793,17.356,17.356,17.356
			h26.034c9.572,0,17.356-7.784,17.356-17.356v-19.161c1.64-1.241,2.864-3.02,3.298-5.155c1.059-5.233,3.185-14.77,5.84-24.975
			l8.669,25.999c1.18,3.541,4.495,5.936,8.227,5.936v17.356c0,9.572,7.793,17.356,17.356,17.356h190.915
			c9.572,0,17.356-7.784,17.356-17.356V477.29c3.74,0,7.055-2.395,8.227-5.936l8.678-26.017c3.454,13.312,5.797,24.776,5.84,24.992
			c0.434,2.135,1.657,3.914,3.289,5.155v19.161c0,9.572,7.793,17.356,17.356,17.356h26.034c9.572,0,17.356-7.784,17.356-17.356
			v-18.128c2.812-1.241,4.886-3.879,5.189-7.107C475.149,313.85,442.633,124.843,415.358,93.117z M104.921,459.934h-37.09
			c-4.79-58.359-3.107-119.088,1.901-173.559h46.497c-0.668,52.528,1.97,93.002,4.677,119.817
			C113.929,421.517,107.681,447.499,104.921,459.934z M123.622,159.078c-0.286,2.76-0.538,5.458-0.798,8.175v0.009
			c-0.026,0.252-0.052,0.503-0.078,0.755c-0.321,3.384-0.625,6.751-0.92,10.084c-0.312,3.506-0.616,6.994-0.903,10.431
			c-0.156,1.883-0.286,3.723-0.434,5.589c-0.607,7.793-1.146,15.403-1.614,22.832H78.341c9.008-57.257,20.862-99.484,29.93-111.069
			c0.408,0.312,0.885,0.581,1.267,0.894c0.85,0.686,1.631,1.397,2.395,2.117c0.955,0.911,1.874,1.831,2.699,2.777
			c0.659,0.755,1.276,1.51,1.857,2.274c0.746,0.989,1.432,1.979,2.057,2.968c0.477,0.772,0.955,1.527,1.38,2.291
			c0.555,1.015,1.05,2.022,1.501,3.02c0.33,0.729,0.677,1.458,0.963,2.161c0.399,1.007,0.738,1.97,1.041,2.916
			c0.217,0.642,0.451,1.302,0.625,1.909c0.269,0.946,0.477,1.822,0.677,2.673c0.104,0.495,0.252,1.033,0.338,1.484
			c0.174,0.868,0.286,1.605,0.391,2.308c0.043,0.286,0.113,0.659,0.139,0.911c0.113,0.859,0.174,1.562,0.2,1.987
			C125.011,145.523,124.299,152.335,123.622,159.078z M307.595,24.639L294.552,35.33c-0.356,0.286-0.521,0.738-0.824,1.076
			l-5.97,4.478c-18.397,15.056-45.117,15.074-63.358,0.13l-18.389-16.879C239.282,15.006,274.393,15.215,307.595,24.639z
			 M378.373,305.874c-0.278,41.585-2.725,74.657-5.198,100.17c-0.078,0.807-0.026,1.614,0.113,2.404
			c-1.935,18.536-3.784,29.488-4.217,31.97l-6.508,19.517h-2.43H151.86h-2.421l-6.508-19.517
			c-0.443-2.473-2.291-13.399-4.226-31.909c0.156-0.807,0.2-1.64,0.113-2.464c-2.508-25.912-4.999-59.592-5.215-102.096
			c-0.052-29.054,0.894-62.256,3.515-99.285c54.168-13.086,92.846-61.553,92.846-117.881c0-8.044-0.824-15.976-2.395-23.76
			c9.034,4.191,18.727,6.517,28.49,6.517c9.745,0,19.395-2.308,28.36-6.482c-1.553,7.775-2.386,15.69-2.386,23.726
			c0,56.32,38.678,104.795,92.846,117.881C377.557,242.508,378.477,276.361,378.373,305.874z M390.166,178.083
			c-0.295-3.332-0.599-6.682-0.92-10.066c-0.026-0.252-0.052-0.503-0.069-0.755c-0.26-2.716-0.521-5.424-0.798-8.183
			c-0.677-6.743-1.397-13.555-2.187-20.506c0.026-0.417,0.095-1.111,0.2-1.97c0.035-0.243,0.104-0.599,0.139-0.876
			c0.104-0.703,0.217-1.441,0.391-2.317c0.095-0.46,0.243-1.007,0.356-1.501c0.191-0.85,0.399-1.718,0.668-2.664
			c0.174-0.607,0.408-1.258,0.616-1.901c0.312-0.955,0.651-1.918,1.05-2.924c0.286-0.703,0.633-1.432,0.963-2.161
			c0.451-0.998,0.955-2.013,1.51-3.037c0.417-0.755,0.885-1.51,1.362-2.274c0.634-1.007,1.328-2.005,2.074-3.003
			c0.573-0.755,1.189-1.51,1.831-2.248c0.842-0.963,1.77-1.9,2.734-2.82c0.755-0.712,1.527-1.406,2.36-2.083
			c0.391-0.321,0.868-0.599,1.276-0.911c9.077,11.602,20.923,53.821,29.939,111.069h-40.543c-0.46-7.446-1.007-15.065-1.614-22.875
			c-0.148-1.848-0.278-3.671-0.434-5.537C390.791,185.095,390.479,181.597,390.166,178.083z M444.178,459.934h-37.098
			c-2.768-12.436-9.016-38.417-15.994-53.743c2.708-26.815,5.346-67.289,4.677-119.817h46.497
			C447.276,340.847,448.959,401.575,444.178,459.934z"/>
	</g>
</g>
</svg>